<?xml version="1.0" ?><svg viewBox="0 0 60 60" xmlns="http://www.w3.org/2000/svg"><rect fill="#fff" height="60" rx="10" width="60"/><path d="M40,8H32V38a6,6,0,1,1-6-6V24A14,14,0,1,0,40,38V22.96A17.9,17.9,0,0,0,50,26V18A10.011,10.011,0,0,1,40,8Z" fill="#f1f3f4"/><path d="M26,53.5A15.517,15.517,0,0,1,10.5,38a1.5,1.5,0,0,1,3,0,12.5,12.5,0,0,0,25,0V22.96a1.5,1.5,0,0,1,2.335-1.246A16.382,16.382,0,0,0,48.5,24.433V19.4A11.517,11.517,0,0,1,38.5,8a1.5,1.5,0,0,1,3,0A8.51,8.51,0,0,0,50,16.5,1.5,1.5,0,0,1,51.5,18v8A1.5,1.5,0,0,1,50,27.5a19.4,19.4,0,0,1-8.5-1.951V38A15.517,15.517,0,0,1,26,53.5Z" fill="#f28080"/><path d="M12,39.5A1.5,1.5,0,0,1,10.5,38,15.517,15.517,0,0,1,26,22.5a1.5,1.5,0,0,1,0,3A12.514,12.514,0,0,0,13.5,38,1.5,1.5,0,0,1,12,39.5Z" fill="#7bcdd1"/><path d="M26,45.5a7.5,7.5,0,0,1-1.5-14.85V24a1.5,1.5,0,0,1,3,0v8A1.5,1.5,0,0,1,26,33.5a4.5,4.5,0,0,0,0,9,1.5,1.5,0,0,1,0,3Z" fill="#f28080"/><path d="M26,45.5a1.5,1.5,0,0,1,0-3A4.505,4.505,0,0,0,30.5,38V8A1.5,1.5,0,0,1,32,6.5h8a1.5,1.5,0,0,1,0,3H33.5V38A7.508,7.508,0,0,1,26,45.5Z" fill="#7bcdd1"/></svg>